<svg xmlns="http://www.w3.org/2000/svg" width="36" height="13" version="1.0"
    viewBox="0 0 36 13">
    <path
        d="M37 3c-1.3 2.5-.6 3.8 2.6 5 2.2.9 2.4 1.5 2.4 8.3 0 8.6 1.4 11.1 10.3 18.2 3.1 2.5 5.7 4.9 5.7 5.3 0 .5-2.2 2.5-5 4.6-2.7 2.1-6.3 5.3-8 7.2-2.8 3.2-3 4-3 11.4 0 6.3-.3 8-1.4 8-4.3 0-5.4 6.5-1.2 7.6 1.2.3 13.7.4 27.9.2 27.2-.3 28.1-.5 27-4.9-.3-1.1-1.6-2.2-2.9-2.5-2.2-.6-2.4-1-2.3-8 .1-8.9-.6-10.3-9.3-17.5-3.5-2.9-6.4-5.5-6.6-5.9-.2-.5 2.3-2.9 5.5-5.5C87.7 27.3 89 25 89 15.8c0-7.2.1-7.7 2.3-8 1.7-.2 2.2-1 2.2-3.3v-3l-27.7-.3C38.8 1 38.1 1 37 3zm48 11.9c0 8-1.1 9.9-10.4 17-3 2.4-5.8 5.2-6.1 6.2-.9 2.8 1.4 5.9 8.3 11.3 7 5.5 8.2 7.8 8.2 15.6v6H46v-6.3c0-7.4 1.3-9.6 9.2-16.1 9.9-8 9.9-9.7.3-17.6-8.9-7.1-9.5-8.2-9.5-16.2V8h39v6.9z" />
    <path
        d="M51.7 20.7c-.8 1.2-.1 2 7.3 8.4l6.6 5.7 3.5-3.2c1.9-1.7 5.1-4.5 7-6.1l3.4-3-8.5-.6c-4.7-.4-10.8-1-13.6-1.4-2.9-.4-5.4-.4-5.7.2zM53.1 55.6c-2.6 2.2-3.1 3.3-3.1 7V67h31v-4.2c0-3.2-.6-4.9-2.7-7-2.6-2.7-3-2.8-12.4-2.8-9 0-10 .2-12.8 2.6zM96.8 6.5c-.3 1.4-.2 2.5.2 2.5 2.6 0 20.1 26.2 18.6 27.8-.6.5-23.6 2-33.6 2.1l-5.5.1 6.7 6.3c7.5 7 8.8 9.5 8.8 17.4 0 4.8.4 5.8 2.6 7.6 2.3 1.8 2.6 2.5 2 6.3-1 7.3-.8 7.4 12.1 7.4 6.3 0 12.3-.5 13.4-1 1.8-1 1.9-2.3 1.9-22.1 0-16.2-.3-21.8-1.5-24.5-1.1-2.6-1.1-3.6-.2-3.8 8-2.3 9.2-3.1 9.5-6.8.4-4.1-.4-4.5-7.8-4.9-6.6-.3-7-.1-7 2.7 0 3.6-1 2.6-6.9-7.4-6.6-11-12.3-15.2-13.3-9.7zM117 53c0 .9-.5 3.1-1.1 4.9l-1.1 3.1h-9.4c-10.3 0-10.1.1-8.4-6.2l1.1-3.7 8.2-.3c9.7-.4 10.7-.1 10.7 2.2zM29.8 6.1c-1 .5-4.3 5.3-7.5 10.6-4.1 6.9-5.9 9.1-6.2 7.8-.6-3.6-2.1-4.5-6.5-3.9C.9 21.7 1 21.7 1 25.9c0 3.9 0 4 5.5 5.6l5.5 1.6-1.5 2.9c-2 3.8-2.2 44.9-.3 46.8 1.9 1.9 24.2 1.6 25.8-.3 1-1.3 1-1.9-.4-3.3-2.4-2.7-2-6.7.9-9 2.1-1.7 2.5-2.8 2.5-7.6 0-7.4 1.8-10.8 9.3-17.8l6.2-5.7L50 39c-9.6-.2-32.1-1.8-32.7-2.3-.8-.8 11.7-21.5 15-24.9 4.3-4.2 2.3-8.6-2.5-5.7zm3.8 48.4c2.6 6.3 2.3 6.5-7.1 6.5-8.3 0-8.6-.1-9.5-2.6-.6-1.4-1-3.6-1-5 0-2.3.2-2.4 8.1-2.4h8l1.5 3.5z" />
</svg>