<svg aria-hidden="true" style="position: absolute; width: 0; height: 0; overflow: hidden;"
    version="1.1" xmlns="http://www.w3.org/2000/svg" xmlns:xlink="http://www.w3.org/1999/xlink">
    <defs>
        <symbol id="icon-carRent" viewBox="0 0 40 32">
            <path fill="#002e6c" style="fill: var(--color1, #002e6c)"
                d="M12.8 0.609c-0.317 0.61-0.146 0.927 0.634 1.219 0.536 0.219 0.585 0.366 0.585 2.024 0 2.097 0.341 2.706 2.511 4.437 0.756 0.61 1.39 1.195 1.39 1.292 0 0.122-0.536 0.609-1.219 1.121-0.658 0.512-1.536 1.292-1.95 1.755-0.683 0.78-0.731 0.975-0.731 2.779 0 1.536-0.073 1.951-0.341 1.951-1.048 0-1.317 1.585-0.293 1.853 0.293 0.073 3.34 0.098 6.802 0.049 6.632-0.073 6.851-0.122 6.583-1.195-0.073-0.268-0.39-0.537-0.707-0.61-0.536-0.146-0.585-0.244-0.561-1.95 0.024-2.17-0.146-2.511-2.267-4.267-0.853-0.707-1.561-1.341-1.609-1.438-0.049-0.122 0.561-0.707 1.341-1.341 2.194-1.755 2.511-2.316 2.511-4.559 0-1.755 0.024-1.877 0.561-1.951 0.415-0.049 0.536-0.244 0.536-0.805v-0.731l-6.753-0.073c-6.583-0.049-6.753-0.049-7.022 0.439zM24.503 3.511c0 1.951-0.268 2.414-2.536 4.145-0.731 0.585-1.414 1.268-1.487 1.511-0.219 0.683 0.341 1.439 2.024 2.755 1.707 1.341 1.999 1.902 1.999 3.803v1.463h-9.509v-1.536c0-1.804 0.317-2.341 2.243-3.925 2.414-1.95 2.414-2.365 0.073-4.291-2.17-1.731-2.316-1.999-2.316-3.95v-1.658h9.509v1.682z"></path>
            <path fill="#a00" style="fill: var(--color2, #a00)"
                d="M16.384 4.925c-0.195 0.293-0.024 0.488 1.78 2.048l1.609 1.39 0.853-0.78c0.463-0.415 1.243-1.097 1.707-1.487l0.829-0.731-2.072-0.146c-1.146-0.097-2.633-0.244-3.316-0.341-0.707-0.098-1.317-0.098-1.39 0.049zM16.725 13.434c-0.634 0.536-0.756 0.805-0.756 1.707v1.073h7.558v-1.024c0-0.78-0.146-1.195-0.658-1.707-0.634-0.658-0.731-0.683-3.023-0.683-2.194 0-2.438 0.049-3.121 0.634zM27.38 1.463c-0.073 0.341-0.049 0.609 0.049 0.609 0.634 0 4.901 6.388 4.535 6.778-0.146 0.122-5.754 0.488-8.192 0.512l-1.341 0.024 1.633 1.536c1.829 1.707 2.145 2.316 2.145 4.242 0 1.17 0.098 1.414 0.634 1.853 0.561 0.439 0.634 0.609 0.488 1.536-0.244 1.78-0.195 1.804 2.95 1.804 1.536 0 2.999-0.122 3.267-0.244 0.439-0.244 0.463-0.561 0.463-5.388 0-3.95-0.073-5.315-0.366-5.973-0.268-0.634-0.268-0.878-0.049-0.927 1.951-0.561 2.243-0.756 2.316-1.658 0.097-1-0.097-1.097-1.902-1.195-1.609-0.073-1.707-0.024-1.707 0.658 0 0.878-0.244 0.634-1.682-1.804-1.609-2.682-2.999-3.706-3.243-2.365zM32.305 12.8c0 0.219-0.122 0.756-0.268 1.195l-0.268 0.756h-2.292c-2.511 0-2.463 0.024-2.048-1.512l0.268-0.902 1.999-0.073c2.365-0.098 2.609-0.024 2.609 0.536z"></path>
            <path fill="#002e6c" style="fill: var(--color1, #002e6c)"
                d="M11.045 1.365c-0.244 0.122-1.048 1.292-1.829 2.584-1 1.682-1.439 2.219-1.512 1.902-0.146-0.878-0.512-1.097-1.585-0.951-2.121 0.268-2.097 0.268-2.097 1.292 0 0.951 0 0.975 1.341 1.365l1.341 0.39-0.366 0.707c-0.488 0.927-0.537 10.947-0.073 11.41s5.9 0.39 6.29-0.073c0.244-0.317 0.244-0.463-0.098-0.805-0.585-0.658-0.488-1.633 0.219-2.194 0.512-0.414 0.61-0.683 0.61-1.853 0-1.804 0.439-2.633 2.267-4.34l1.511-1.39-1.097-0.024c-2.341-0.049-7.826-0.439-7.973-0.561-0.195-0.195 2.853-5.242 3.657-6.071 1.049-1.024 0.561-2.097-0.609-1.39zM11.971 13.166c0.634 1.536 0.561 1.585-1.731 1.585-2.024 0-2.097-0.024-2.316-0.634-0.146-0.341-0.244-0.878-0.244-1.219 0-0.561 0.049-0.585 1.975-0.585h1.951l0.366 0.853zM2.94 23.406c0.746 0 1.336 0.188 1.77 0.563 0.434 0.371 0.651 0.902 0.651 1.595h-1.543c0-0.293-0.078-0.524-0.234-0.695-0.151-0.171-0.368-0.256-0.651-0.256-0.327 0-0.568 0.102-0.724 0.307-0.151 0.205-0.227 0.49-0.227 0.856v0.468c0 0.361 0.076 0.646 0.227 0.856 0.156 0.205 0.393 0.307 0.71 0.307 0.312 0 0.549-0.080 0.71-0.241s0.241-0.388 0.241-0.68h1.492c0 0.688-0.212 1.214-0.636 1.58-0.419 0.366-1.014 0.549-1.785 0.549-0.858 0-1.509-0.219-1.953-0.658-0.439-0.439-0.658-1.087-0.658-1.946s0.219-1.507 0.658-1.946c0.444-0.439 1.095-0.658 1.953-0.658zM9.606 28.526l-0.212-0.709h-1.763l-0.212 0.709h-1.653l1.836-5.032h1.88l1.836 5.032h-1.712zM7.968 26.69h1.090l-0.527-1.792h-0.029l-0.534 1.792zM16.703 25.037c0 0.307-0.083 0.585-0.249 0.834s-0.407 0.432-0.724 0.549l1.119 2.107h-1.814l-0.892-1.836h-0.6v1.836h-1.616v-5.032h3.079c0.361 0 0.668 0.071 0.922 0.212 0.258 0.137 0.451 0.324 0.578 0.563 0.132 0.234 0.198 0.49 0.198 0.768zM15.058 25.103c0-0.132-0.044-0.241-0.132-0.329-0.080-0.081-0.19-0.132-0.313-0.132-0.003 0-0.006 0-0.009 0h-1.060v0.929h1.061c0.127 0 0.234-0.044 0.322-0.132 0.088-0.093 0.132-0.205 0.132-0.336z"></path>
            <path fill="#a00" style="fill: var(--color2, #a00)"
                d="M22.396 25.037c0 0.307-0.083 0.585-0.249 0.834s-0.407 0.432-0.724 0.549l1.119 2.107h-1.814l-0.892-1.836h-0.6v1.836h-1.616v-5.032h3.079c0.361 0 0.668 0.071 0.922 0.212 0.259 0.137 0.451 0.324 0.578 0.563 0.132 0.234 0.198 0.49 0.198 0.768zM20.75 25.103c0-0.132-0.044-0.241-0.132-0.329-0.080-0.081-0.19-0.132-0.313-0.132-0.003 0-0.006 0-0.009 0h-1.060v0.929h1.061c0.127 0 0.234-0.044 0.322-0.132 0.088-0.093 0.132-0.205 0.132-0.336zM23.313 23.494h4.352v1.207h-2.736v0.695h2.341v1.156h-2.341v0.768h2.787v1.207h-4.403v-5.032zM32.19 28.526l-2.114-2.443v2.443h-1.485v-5.032h1.412l2.114 2.48v-2.48h1.485v5.032h-1.412zM37.581 24.781v3.745h-1.616v-3.745h-1.653v-1.287h4.915v1.287h-1.646zM7.978 29.659c0.261 0 0.468 0.066 0.62 0.197 0.152 0.13 0.228 0.316 0.228 0.558h-0.54c0-0.102-0.027-0.183-0.082-0.243-0.053-0.060-0.129-0.090-0.228-0.090-0.114 0-0.199 0.036-0.253 0.108-0.053 0.072-0.079 0.172-0.079 0.3v0.164c0 0.126 0.027 0.226 0.079 0.3 0.055 0.072 0.137 0.108 0.248 0.108 0.109 0 0.192-0.028 0.248-0.084s0.084-0.136 0.084-0.238h0.522c0 0.241-0.074 0.425-0.223 0.553-0.147 0.128-0.355 0.192-0.625 0.192-0.3 0-0.528-0.077-0.684-0.23-0.154-0.154-0.23-0.381-0.23-0.681s0.077-0.527 0.23-0.681c0.155-0.154 0.383-0.23 0.684-0.23zM10.884 30.742c0 0.241-0.076 0.424-0.228 0.55s-0.368 0.189-0.648 0.189c-0.28 0-0.496-0.063-0.65-0.189-0.152-0.126-0.228-0.31-0.228-0.55v-1.052h0.566v1.044c0 0.099 0.027 0.178 0.079 0.238 0.053 0.058 0.13 0.087 0.23 0.087s0.178-0.030 0.23-0.090c0.055-0.060 0.082-0.138 0.082-0.236v-1.044h0.566v1.052zM12.935 30.23c0 0.108-0.029 0.205-0.087 0.292s-0.143 0.151-0.253 0.192l0.392 0.737h-0.635l-0.312-0.643h-0.21v0.643h-0.566v-1.761h1.078c0.126 0 0.234 0.025 0.323 0.074 0.090 0.048 0.158 0.114 0.202 0.197 0.046 0.082 0.069 0.172 0.069 0.269zM12.359 30.253c0-0.001 0-0.003 0-0.004 0-0.043-0.018-0.083-0.046-0.111v0c-0.028-0.028-0.067-0.046-0.11-0.046-0.001 0-0.002 0-0.003 0h-0.371v0.325h0.371c0.001 0 0.002 0 0.003 0 0.043 0 0.082-0.018 0.11-0.046l0-0c0.029-0.030 0.046-0.070 0.046-0.114 0-0.001 0-0.002-0-0.004v0zM14.927 30.23c0 0.108-0.029 0.205-0.087 0.292s-0.143 0.151-0.253 0.192l0.392 0.737h-0.635l-0.312-0.643h-0.21v0.643h-0.566v-1.761h1.078c0.126 0 0.234 0.025 0.323 0.074 0.091 0.048 0.158 0.114 0.202 0.197 0.046 0.082 0.069 0.172 0.069 0.269zM14.351 30.253c0-0.001 0-0.003 0-0.004 0-0.043-0.018-0.083-0.046-0.111v0c-0.028-0.028-0.067-0.046-0.11-0.046-0.001 0-0.002 0-0.003 0h-0.371v0.325h0.371c0.001 0 0.002 0 0.003 0 0.043 0 0.082-0.018 0.11-0.046l0-0c0.029-0.030 0.046-0.070 0.046-0.114 0-0.001 0-0.002-0-0.004v0zM15.248 29.69h1.523v0.422h-0.957v0.243h0.819v0.404h-0.819v0.269h0.975v0.422h-1.541v-1.761zM18.355 31.451l-0.74-0.855v0.855h-0.52v-1.761h0.494l0.74 0.868v-0.868h0.52v1.761h-0.494zM20.242 30.141v1.311h-0.566v-1.311h-0.579v-0.451h1.72v0.451h-0.576z"></path>
            <path fill="#002e6c" style="fill: var(--color1, #002e6c)"
                d="M22.768 29.659c0.261 0 0.468 0.066 0.62 0.197 0.152 0.13 0.228 0.316 0.228 0.558h-0.54c0-0.102-0.027-0.183-0.082-0.243-0.053-0.060-0.129-0.090-0.228-0.090-0.114 0-0.199 0.036-0.253 0.108-0.053 0.072-0.079 0.172-0.079 0.3v0.164c0 0.126 0.026 0.226 0.079 0.3 0.055 0.072 0.137 0.108 0.248 0.108 0.109 0 0.192-0.028 0.248-0.084s0.084-0.136 0.084-0.238h0.522c0 0.241-0.074 0.425-0.223 0.553-0.147 0.128-0.355 0.192-0.625 0.192-0.3 0-0.528-0.077-0.684-0.23-0.154-0.154-0.23-0.381-0.23-0.681s0.077-0.527 0.23-0.681c0.155-0.154 0.383-0.23 0.684-0.23zM25.108 31.451v-0.668h-0.622v0.668h-0.566v-1.761h0.566v0.643h0.622v-0.643h0.566v1.761h-0.566zM26.928 29.659c0.304 0 0.538 0.078 0.704 0.233s0.248 0.381 0.248 0.678-0.083 0.523-0.248 0.678c-0.166 0.155-0.4 0.233-0.704 0.233s-0.538-0.077-0.704-0.23c-0.164-0.155-0.246-0.382-0.246-0.681s0.082-0.525 0.246-0.678c0.166-0.155 0.4-0.233 0.704-0.233zM26.928 30.082c-0.121 0-0.213 0.037-0.276 0.11s-0.095 0.172-0.095 0.297v0.164c0 0.125 0.032 0.224 0.095 0.297s0.155 0.11 0.276 0.11c0.121 0 0.213-0.037 0.276-0.11 0.065-0.073 0.097-0.172 0.097-0.297v-0.164c0-0.125-0.032-0.224-0.097-0.297-0.063-0.073-0.155-0.11-0.276-0.11zM28.211 31.451v-1.761h0.566v1.761h-0.566zM29.92 29.659c0.225 0 0.41 0.046 0.556 0.138 0.145 0.090 0.219 0.225 0.223 0.404v0.031h-0.53v-0.010c0-0.001 0-0.002 0-0.003 0-0.050-0.022-0.094-0.056-0.125l-0-0c-0.038-0.034-0.095-0.051-0.172-0.051-0.075 0-0.133 0.011-0.174 0.033-0.039 0.022-0.059 0.050-0.059 0.082 0 0.046 0.027 0.080 0.082 0.102s0.142 0.045 0.264 0.069c0.142 0.029 0.258 0.060 0.348 0.092 0.092 0.031 0.172 0.082 0.241 0.154s0.103 0.169 0.105 0.292c0 0.208-0.071 0.363-0.212 0.463-0.14 0.101-0.328 0.151-0.563 0.151-0.275 0-0.489-0.046-0.643-0.138-0.152-0.092-0.228-0.255-0.228-0.489h0.535c0 0.089 0.023 0.148 0.069 0.179 0.046 0.029 0.118 0.044 0.215 0.044 0.072 0 0.131-0.008 0.177-0.023 0.048-0.015 0.072-0.047 0.072-0.095 0-0.043-0.026-0.074-0.079-0.095-0.051-0.022-0.136-0.045-0.253-0.069-0.142-0.029-0.262-0.062-0.378-0.101l0.022 0.006c-0.097-0.036-0.18-0.093-0.245-0.166l-0-0.001c-0.070-0.077-0.105-0.181-0.105-0.312 0-0.193 0.074-0.334 0.223-0.425 0.15-0.092 0.34-0.138 0.568-0.138zM31.028 29.69h1.523v0.422h-0.957v0.243h0.819v0.404h-0.819v0.269h0.975v0.422h-1.541v-1.761z"></path>
        </symbol>
        <symbol id="icon-Vector" viewBox="0 0 4 32">
            <path stroke-linejoin="miter" stroke-linecap="butt" stroke-miterlimit="4"
                stroke-width="2" d="M2 0v32"></path>
        </symbol>
        <symbol id="icon-heart" viewBox="0 0 32 32">
            <path fill="none" stroke="#fff" style="stroke: var(--color1, #fff)"
                stroke-linejoin="round" stroke-linecap="round" stroke-miterlimit="4"
                stroke-width="2.6667"
                d="M27.787 6.148c-1.327-1.328-3.161-2.149-5.187-2.149s-3.859 0.821-5.187 2.149l-1.413 1.413-1.413-1.415c-1.327-1.327-3.161-2.148-5.187-2.148-4.051 0-7.336 3.284-7.336 7.336 0 2.026 0.821 3.86 2.149 5.188l11.787 11.785 11.787-11.787c1.327-1.328 2.148-3.161 2.148-5.187s-0.821-3.859-2.148-5.187l0 0z"></path>
        </symbol>
        <symbol id="icon-heart-input" viewBox="0 0 32 32">
            <path fill="#3470ff"
                style="fill: var(--color1, #3470ff); stroke: var(--color1, #3470ff)"
                stroke="#3470ff" stroke-linejoin="round" stroke-linecap="round"
                stroke-miterlimit="4" stroke-width="2.6667"
                d="M27.787 6.148c-1.327-1.328-3.161-2.149-5.187-2.149s-3.859 0.821-5.187 2.149l-1.413 1.413-1.413-1.415c-1.327-1.327-3.161-2.148-5.187-2.148-4.051 0-7.336 3.284-7.336 7.336 0 2.026 0.821 3.86 2.149 5.188l11.787 11.785 11.787-11.787c1.327-1.328 2.148-3.161 2.148-5.187s-0.821-3.859-2.148-5.187l0 0z"></path>
        </symbol>
    </defs>
</svg>